grf
version=1
nRows=15
nColumns=37
inDegrees=no
endheader
time	ground_force_1_vx	ground_force_1_vy	ground_force_1_vz	ground_force_1_px	ground_force_1_py	ground_force_1_pz	ground_moment_1_mx	ground_moment_1_my	ground_moment_1_mz	ground_force_2_vx	ground_force_2_vy	ground_force_2_vz	ground_force_2_px	ground_force_2_py	ground_force_2_pz	ground_moment_2_mx	ground_moment_2_my	ground_moment_2_mz	ground_force_3_vx	ground_force_3_vy	ground_force_3_vz	ground_force_3_px	ground_force_3_py	ground_force_3_pz	ground_moment_3_mx	ground_moment_3_my	ground_moment_3_mz	ground_force_4_vx	ground_force_4_vy	ground_force_4_vz	ground_force_4_px	ground_force_4_py	ground_force_4_pz	ground_moment_4_mx	ground_moment_4_my	ground_moment_4_mz
      0.00000000	      0.00000000	     -0.00000000	      0.00000000	      0.00000000	      0.00000000	      0.00000000	      0.00000000	      0.00000000	      0.00000000	      9.77980232	     53.81228256	   -431.71792603	   -395.30311349	  -1113.56648495	      0.00000000	      0.00000000	      0.00000000	    495.67593369	     13.46200640	    -45.60708736	   -384.59011841	   -393.91580351	   -686.77201304	      0.00000000	      0.00000000	     -0.00000000	   -112.29762854	      0.00000000	     -0.00000000	      0.00000000	      0.00000000	      0.00000000	      0.00000000	      0.00000000	      0.00000000	      0.00000000
      0.01000000	      0.00000000	     -0.00000000	      0.00000000	      0.00000000	      0.00000000	      0.00000000	      0.00000000	      0.00000000	      0.00000000	      9.51223373	     53.07780838	   -421.48062134	   -396.33039451	  -1113.40637338	      0.00000000	      0.00000000	      0.00000000	    549.00154984	     11.67664007	    -48.63221843	   -400.86868286	   -390.77325894	   -687.15542866	      0.00000000	      0.00000000	     -0.00000000	   -135.16449496	      0.00000000	     -0.00000000	      0.00000000	      0.00000000	      0.00000000	      0.00000000	      0.00000000	      0.00000000	      0.00000000
      0.02000000	      0.00000000	     -0.00000000	      0.00000000	      0.00000000	      0.00000000	      0.00000000	      0.00000000	      0.00000000	      0.00000000	      9.62240601	     52.01896667	   -408.23468018	   -398.25931339	  -1112.17536129	      0.00000000	      0.00000000	      0.00000000	    522.42584032	     11.16694384	    -51.19234946	   -417.71563721	   -387.30864048	   -685.78027111	      0.00000000	      0.00000000	     -0.00000000	   -251.59862138	      0.00000000	     -0.00000000	      0.00000000	      0.00000000	      0.00000000	      0.00000000	      0.00000000	      0.00000000	      0.00000000
      0.03000000	      0.00000000	     -0.00000000	      0.00000000	      0.00000000	      0.00000000	      0.00000000	      0.00000000	      0.00000000	      0.00000000	      9.81315613	     51.08433533	   -398.47763062	   -400.93179494	  -1112.37393637	      0.00000000	      0.00000000	      0.00000000	    595.61814425	     10.00170044	    -54.05114071	   -431.50347900	   -384.34014847	   -685.67273763	      0.00000000	      0.00000000	     -0.00000000	   -396.33621220	      0.00000000	     -0.00000000	      0.00000000	      0.00000000	      0.00000000	      0.00000000	      0.00000000	      0.00000000	      0.00000000
      0.04000000	      0.00000000	     -0.00000000	      0.00000000	      0.00000000	      0.00000000	      0.00000000	      0.00000000	      0.00000000	      0.00000000	     10.41461468	     49.23305130	   -388.01373291	   -404.66844218	  -1112.24274506	      0.00000000	      0.00000000	      0.00000000	    505.35612635	      8.77211264	    -56.94485169	   -445.15951538	   -381.63643478	   -685.98030819	      0.00000000	      0.00000000	     -0.00000000	   -482.39180373	      0.00000000	     -0.00000000	      0.00000000	      0.00000000	      0.00000000	      0.00000000	      0.00000000	      0.00000000	      0.00000000
      0.05000000	      0.00000000	     -0.00000000	      0.00000000	      0.00000000	      0.00000000	      0.00000000	      0.00000000	      0.00000000	      0.00000000	     11.84183693	     47.76061249	   -371.59793091	   -408.94504662	  -1110.07736799	      0.00000000	      0.00000000	      0.00000000	    730.77894826	      7.90810353	    -59.21829293	   -459.91168213	   -378.21389930	   -684.52266989	      0.00000000	      0.00000000	     -0.00000000	   -640.91788078	      0.00000000	     -0.00000000	      0.00000000	      0.00000000	      0.00000000	      0.00000000	      0.00000000	      0.00000000	      0.00000000
      0.06000000	      0.00000000	     -0.00000000	      0.00000000	      0.00000000	      0.00000000	      0.00000000	      0.00000000	      0.00000000	      0.00000000	     12.71053219	     45.64836121	   -355.61389160	   -411.95782491	  -1109.91650284	      0.00000000	      0.00000000	      0.00000000	    850.79644624	      6.05533302	    -61.29195838	   -471.61328125	   -375.06366511	   -684.96316009	      0.00000000	      0.00000000	     -0.00000000	   -884.28381094	      0.00000000	     -0.00000000	      0.00000000	      0.00000000	      0.00000000	      0.00000000	      0.00000000	      0.00000000	      0.00000000
      0.07000000	      0.00000000	     -0.00000000	      0.00000000	      0.00000000	      0.00000000	      0.00000000	      0.00000000	      0.00000000	      0.00000000	     11.75235653	     43.79589081	   -338.66210938	   -414.65831195	  -1107.76952623	      0.00000000	      0.00000000	      0.00000000	    908.61271151	      3.58120624	    -63.62812455	   -482.48965454	   -372.82369172	   -684.46527024	      0.00000000	      0.00000000	     -0.00000000	   -940.57831858	      0.00000000	     -0.00000000	      0.00000000	      0.00000000	      0.00000000	      0.00000000	      0.00000000	      0.00000000	      0.00000000
      0.08000000	      0.00000000	     -0.00000000	      0.00000000	      0.00000000	      0.00000000	      0.00000000	      0.00000000	      0.00000000	      0.00000000	     11.40040112	     41.67097092	   -329.09027100	   -416.22491350	  -1108.51077810	      0.00000000	      0.00000000	      0.00000000	    950.05682767	      1.98873381	    -64.94901293	   -492.08340454	   -369.71778926	   -683.93240607	      0.00000000	      0.00000000	     -0.00000000	  -1136.52350869	      0.00000000	     -0.00000000	      0.00000000	      0.00000000	      0.00000000	      0.00000000	      0.00000000	      0.00000000	      0.00000000
      0.09000000	      0.00000000	     -0.00000000	      0.00000000	      0.00000000	      0.00000000	      0.00000000	      0.00000000	      0.00000000	      0.00000000	     11.04751015	     39.64487839	   -319.35424805	   -418.84969899	  -1106.66401621	      0.00000000	      0.00000000	      0.00000000	    951.85467759	     -0.12137341	    -66.09712981	   -501.28964233	   -367.31616637	   -683.78900134	      0.00000000	      0.00000000	     -0.00000000	  -1137.37263600	      0.00000000	     -0.00000000	      0.00000000	      0.00000000	      0.00000000	      0.00000000	      0.00000000	      0.00000000	      0.00000000
      0.10000000	      0.00000000	     -0.00000000	      0.00000000	      0.00000000	      0.00000000	      0.00000000	      0.00000000	      0.00000000	      0.00000000	     10.80942917	     37.63683701	   -313.40005493	   -419.42770222	  -1106.58288924	      0.00000000	      0.00000000	      0.00000000	   1007.47927611	     -1.47550477	    -66.98028552	   -510.27435303	   -364.74271982	   -683.30782040	      0.00000000	      0.00000000	     -0.00000000	  -1254.56937902	      0.00000000	     -0.00000000	      0.00000000	      0.00000000	      0.00000000	      0.00000000	      0.00000000	      0.00000000	      0.00000000
      0.11000000	      0.00000000	     -0.00000000	      0.00000000	      0.00000000	      0.00000000	      0.00000000	      0.00000000	      0.00000000	      0.00000000	     11.13606358	     35.95215988	   -305.62985229	   -420.93330494	  -1104.11023368	      0.00000000	      0.00000000	      0.00000000	   1198.24687061	     -2.18524934	    -68.30504589	   -515.12664795	   -362.92290354	   -682.56181117	      0.00000000	      0.00000000	     -0.00000000	  -1392.02092775	      0.00000000	     -0.00000000	      0.00000000	      0.00000000	      0.00000000	      0.00000000	      0.00000000	      0.00000000	      0.00000000
      0.12000000	      0.00000000	     -0.00000000	      0.00000000	      0.00000000	      0.00000000	      0.00000000	      0.00000000	      0.00000000	      0.00000000	     11.62993813	     34.51750946	   -300.04034424	   -419.98521846	  -1106.53777131	      0.00000000	      0.00000000	      0.00000000	   1422.32287420	     -2.86253293	    -69.02659582	   -516.93164062	   -361.41325347	   -682.60845274	      0.00000000	      0.00000000	     -0.00000000	  -1449.10388966	      0.00000000	     -0.00000000	      0.00000000	      0.00000000	      0.00000000	      0.00000000	      0.00000000	      0.00000000	      0.00000000
      0.13000000	      0.00000000	     -0.00000000	      0.00000000	      0.00000000	      0.00000000	      0.00000000	      0.00000000	      0.00000000	      0.00000000	     11.95420837	     33.05082321	   -290.79321289	   -420.54145408	  -1105.26524130	      0.00000000	      0.00000000	      0.00000000	   1610.05293932	     -3.01617281	    -70.02370427	   -520.04754639	   -360.17608729	   -681.66955714	      0.00000000	      0.00000000	     -0.00000000	  -1692.92717535	      0.00000000	     -0.00000000	      0.00000000	      0.00000000	      0.00000000	      0.00000000	      0.00000000	      0.00000000	      0.00000000
      0.14000000	      0.00000000	     -0.00000000	      0.00000000	      0.00000000	      0.00000000	      0.00000000	      0.00000000	      0.00000000	      0.00000000	     11.76768684	     32.47587585	   -280.23233032	   -422.27008643	  -1104.00876381	      0.00000000	      0.00000000	      0.00000000	   1740.94864890	     -2.95979236	    -70.76216100	   -519.37774658	   -359.66701071	   -682.02534720	      0.00000000	      0.00000000	     -0.00000000	  -1694.96993809	      0.00000000	     -0.00000000	      0.00000000	      0.00000000	      0.00000000	      0.00000000	      0.00000000	      0.00000000	      0.00000000
